<svg width="100" height="100" viewBox="0 0 100 100" fill="none" xmlns="http://www.w3.org/2000/svg">
<g clip-path="url(#clip0_76_5)">
<path d="M72.4026 0H27.5956C12.3794 0 0 12.38 0 27.5962V72.4032C0 87.62 12.3794 99.9994 27.5956 99.9994H72.4026C87.62 99.9994 99.9994 87.6194 99.9994 72.4032V27.5962C100 12.38 87.62 0 72.4026 0ZM91.1276 72.4032C91.1276 82.7277 82.7277 91.127 72.4032 91.127H27.5956C17.2717 91.1276 8.87243 82.7277 8.87243 72.4032V27.5962C8.87243 17.2723 17.2717 8.87243 27.5956 8.87243H72.4026C82.7271 8.87243 91.127 17.2723 91.127 27.5962V72.4032H91.1276Z" fill="black"/>
<path d="M49.9997 24.2336C35.7914 24.2336 24.2324 35.7926 24.2324 50.001C24.2324 64.2087 35.7914 75.7671 49.9997 75.7671C64.208 75.7671 75.767 64.2087 75.767 50.001C75.767 35.7926 64.208 24.2336 49.9997 24.2336ZM49.9997 66.8941C40.6842 66.8941 33.1048 59.3158 33.1048 50.0004C33.1048 40.6843 40.6837 33.1055 49.9997 33.1055C59.3158 33.1055 66.8946 40.6843 66.8946 50.0004C66.8946 59.3158 59.3152 66.8941 49.9997 66.8941Z" fill="black"/>
<path d="M76.8477 16.7104C75.1383 16.7104 73.459 17.4025 72.2518 18.6151C71.0386 19.8217 70.3412 21.5016 70.3412 23.2169C70.3412 24.9269 71.0392 26.6062 72.2518 27.8187C73.4584 29.0254 75.1383 29.7233 76.8477 29.7233C78.563 29.7233 80.237 29.0254 81.4495 27.8187C82.6621 26.6062 83.3541 24.9263 83.3541 23.2169C83.3541 21.5016 82.6621 19.8217 81.4495 18.6151C80.2429 17.4025 78.563 16.7104 76.8477 16.7104Z" fill="black"/>
</g>
<defs>
<clipPath id="clip0_76_5">
<rect width="100" height="100" fill="white"/>
</clipPath>
</defs>
</svg>
