<svg width="100" height="100" viewBox="0 0 100 100" fill="none" xmlns="http://www.w3.org/2000/svg">
<path d="M98.1116 6.25098C96.4059 4.80408 93.7266 4.59705 90.9564 5.70953H90.9519C88.0384 6.87889 8.48072 41.0131 5.242 42.4077C4.65294 42.6124 -0.4917 44.5325 0.0382297 48.8095C0.5113 52.6657 4.64612 54.2627 5.15103 54.447L25.3771 61.3744C26.7189 65.8425 31.6657 82.3272 32.7597 85.8489C33.442 88.0443 34.5542 90.929 36.5033 91.5228C38.2136 92.1825 39.9149 91.5797 41.0157 90.7152L53.3815 79.2423L73.3437 94.8147L73.819 95.0991C75.1745 95.6997 76.4732 96 77.7127 96C78.6703 96 79.5891 95.8203 80.467 95.4608C83.4578 94.2323 84.6541 91.3817 84.7792 91.0587L99.6901 13.5333C100.6 9.39277 99.3353 7.28611 98.1116 6.25098ZM43.215 64.1454L36.3919 82.3454L29.5687 59.5953L81.8794 20.9202L43.215 64.1454Z" fill="black"/>
</svg>
