<svg width="100" height="100" viewBox="0 0 100 100" fill="none" xmlns="http://www.w3.org/2000/svg">
<path d="M48.2565 0.00220878C45.3027 0.0191932 42.3405 0.197517 39.3529 0.562659C33.6401 1.26747 27.978 2.43932 22.5445 4.94436C13.9033 8.92694 7.77576 15.6863 5.99844 25.5112C5.24519 29.6551 4.63582 33.8585 4.28882 38.0873C3.62021 46.2987 4.03491 54.5357 6.3539 62.6282C8.18201 69.0054 11.5505 74.7373 17.4495 78.4567C19.9462 80.0276 23.2385 80.7919 24.9566 81.5901C25.439 81.8194 25.5575 81.9552 25.5829 81.9892C25.6083 82.0147 25.676 82.0741 25.6675 82.5836C25.6083 87.7805 25.6675 97.8346 25.6675 97.8346L25.676 100H29.5438L30.1701 99.3886C30.1701 99.3886 39.9961 89.9034 43.5508 85.9973C44.194 85.3009 44.5241 84.9103 44.5918 84.8679C44.651 84.8254 44.5495 84.7999 45.2096 84.7829C49.873 84.6895 54.5279 84.5112 59.1828 84.2565C65.3188 83.9168 71.5733 83.3309 77.5908 80.8088C82.8297 78.6095 87.2053 75.0175 89.8544 69.6338C92.5627 64.1142 94.0099 58.2635 94.5516 52.2089C95.4487 42.1293 95.1356 32.0328 92.3596 22.0805C90.7261 16.2468 87.4423 11.3131 82.4065 7.83152C76.3805 3.67061 69.5844 2.10814 62.9321 1.11462C59.0474 0.537184 55.1373 0.15506 51.2102 0.0361754C50.2285 0.0106999 49.2467 -0.00628234 48.2565 0.00220878ZM51.0917 4.38391C54.8241 4.48581 58.5565 4.85095 62.2974 5.4114C68.7127 6.37095 74.764 7.83152 79.9521 11.415C84.1585 14.3191 86.7821 18.2423 88.1871 23.2439C90.7769 32.5507 91.107 42.0869 90.2352 51.8268C89.7359 57.4398 88.4071 62.7301 85.9612 67.7147C83.803 72.1134 80.4345 74.9071 75.9151 76.8008C70.6677 79.0001 64.9633 79.586 58.9543 79.9172C54.3502 80.172 49.7376 80.3418 45.125 80.4352C43.9655 80.4607 42.8314 80.7664 42.0274 81.3608C41.2233 81.9552 40.8594 82.5072 40.3601 83.0506C37.821 85.8359 32.7599 90.7356 30.0008 93.419C29.9839 90.1751 29.9585 86.252 30.0008 82.6346C30.0177 81.5221 29.7638 80.3843 29.1291 79.4841C28.4943 78.584 27.6226 78.0406 26.7847 77.6499C24.3388 76.5121 21.1396 75.6459 19.7516 74.7713C14.902 71.7143 12.1514 67.1288 10.5179 61.4224C8.37667 53.9582 7.97042 46.2733 8.60518 38.4524C8.94372 34.3934 9.5277 30.3259 10.264 26.2924C11.8044 17.7922 16.6455 12.4425 24.3472 8.89298C29.2137 6.65118 34.4103 5.54726 39.8861 4.87642C43.6185 4.41787 47.3509 4.27351 51.0917 4.38391ZM52.0058 15.2193C50.22 15.2193 48.485 15.4231 46.8008 15.7967C45.6413 16.0684 44.905 17.2318 45.1673 18.4036C45.4297 19.5755 46.5976 20.3058 47.7656 20.0425C49.1282 19.7283 50.5501 19.567 52.0058 19.567C62.5851 19.567 71.1163 28.1266 71.1163 38.7327C71.1163 40.2017 70.9555 41.6283 70.6423 43.004C70.38 44.1673 71.1078 45.3392 72.2758 45.6024C73.4437 45.8657 74.6032 45.1269 74.8656 43.955C75.2464 42.2737 75.4496 40.5329 75.4496 38.7327C75.4496 25.7744 64.9295 15.2193 52.0058 15.2193ZM30.3901 19.5755C30.0347 19.5585 29.6707 19.584 29.2899 19.6689C25.3544 20.5435 21.4442 23.4052 21.3342 28.5172C21.4442 29.2305 21.4358 29.9948 21.6982 30.6401C22.9846 33.799 24.1018 37.0598 25.7098 40.0489C33.5385 54.5696 45.3789 64.6662 60.4692 71.0774C62.272 71.8417 64.1339 72.003 65.9536 71.2387C68.4588 70.1943 70.5831 68.5809 71.9965 66.2626C73.9346 63.0783 73.96 60.8704 70.7693 58.5182C68.6788 56.9728 66.6222 55.3848 64.5063 53.8733C61.2817 51.5806 57.7948 51.1814 55.3912 55.2065C55.2642 55.4103 55.078 55.5801 54.9172 55.75C53.6816 57.0662 52.1666 57.3889 50.5585 56.7265C44.4564 54.2045 39.7422 50.137 36.8985 44.0824C35.2228 40.5244 35.6798 38.7412 38.8113 36.372C39.1244 36.1427 39.4206 35.8965 39.7084 35.6332C41.0795 34.3765 41.4434 32.8819 40.6309 31.1921C38.7943 27.3369 36.3484 23.8977 33.2508 20.9342C32.4129 20.1359 31.4565 19.6349 30.3901 19.5755ZM51.9719 21.7409C51.0156 21.7409 50.0677 21.8173 49.1367 21.9786C48.3496 22.0805 47.681 22.607 47.3932 23.3458C47.1054 24.093 47.2493 24.9337 47.7571 25.5451C48.2734 26.148 49.0859 26.4283 49.8645 26.2584C50.5416 26.148 51.2525 26.0886 51.9719 26.0886C59.0135 26.0886 64.6671 31.761 64.6671 38.8261C64.6671 39.5479 64.6079 40.2612 64.4979 40.9405C64.3286 41.7217 64.6079 42.5369 65.2088 43.0549C65.8182 43.5644 66.656 43.7088 67.4008 43.4201C68.1371 43.1314 68.6619 42.4605 68.7634 41.6708C68.9242 40.7367 69.0004 39.7856 69.0004 38.8261C69.0004 29.4173 61.3494 21.7409 51.9719 21.7409ZM51.6673 28.2625C50.8886 28.254 50.1608 28.6616 49.763 29.3409C49.3737 30.0202 49.3737 30.8524 49.763 31.5317C50.1608 32.2111 50.8886 32.6187 51.6673 32.6102C55.2811 32.6102 58.1672 35.5058 58.1672 39.1318C58.1587 39.913 58.565 40.6433 59.242 41.0424C59.9191 41.433 60.7485 41.433 61.4256 41.0424C62.1027 40.6433 62.5089 39.913 62.5005 39.1318C62.5005 33.1537 57.6255 28.2625 51.6673 28.2625Z" fill="black"/>
</svg>
