<svg width="100" height="100" viewBox="0 0 100 100" fill="none" xmlns="http://www.w3.org/2000/svg">
<g clip-path="url(#clip0_76_16)">
<path d="M83.3333 0H16.6667C7.4625 0 0 7.4625 0 16.6667V83.3333C0 92.5375 7.4625 100 16.6667 100H83.3333C92.5375 100 100 92.5375 100 83.3333V16.6667C100 7.4625 92.5375 0 83.3333 0ZM71.5063 72.9167C68.9667 64.9917 62.6375 58.8604 54.2667 58.0271V72.9167H52.975C30.2 72.9167 17.2083 57.275 16.6667 31.25H28.0771C28.4521 50.3521 36.8625 58.4437 43.525 60.1125V31.25H54.2687V47.725C60.8479 47.0167 67.7604 39.5083 70.0917 31.25H80.8354C79.0458 41.4271 71.55 48.9333 66.2187 52.0208C71.5479 54.5229 80.0854 61.0708 83.3333 72.9167H71.5063Z" fill="black"/>
</g>
<defs>
<clipPath id="clip0_76_16">
<rect width="100" height="100" fill="white"/>
</clipPath>
</defs>
</svg>
