<svg width="142" height="45" viewBox="0 0 142 45" fill="none" xmlns="http://www.w3.org/2000/svg">
<path d="M97.3878 12.7217C97.3878 12.7217 124.834 9.27024 141.094 22.5C141.094 22.5 134.047 13.0714 110.618 10.7401C100.477 6.71868 90.1611 1.82321 78.2134 0.424239C66.2657 -0.974421 45.7509 1.24031 33.5118 4.7954C33.5118 4.7954 54.9592 11.0898 66.4406 10.5652C58.0267 10.0955 47.3827 5.26173 47.3827 5.26173C61.2537 1.59005 70.6369 1.24031 80.6613 3.10529C90.6857 4.97027 106.538 10.915 106.538 10.915C104.498 11.6144 97.3878 12.7217 97.3878 12.7217ZM5.07041 9.57459C5.07041 9.57459 1.10727 8.9334 5.72205e-05 7.24329C5.0121 8.58366 22.7296 7.53474 28.2225 6.0195C35.8135 9.86604 55.3164 12.8608 70.8697 14.2955C33.5115 11.9852 8.20388 1.00745 0.663457 22.9212C-0.712997 15.1113 5.07041 9.57459 5.07041 9.57459Z" fill="url(#paint0_linear_39_144)"/>
<path d="M84.9439 43.6875V37.142H86.3278V40.0281H86.4141L88.7695 37.142H90.4283L87.9993 40.0728L90.457 43.6875H88.8015L87.0085 40.9964L86.3278 41.8274V43.6875H84.9439ZM96.0919 37.142H97.4758V41.3928C97.4758 41.87 97.3618 42.2876 97.1338 42.6456C96.908 43.0036 96.5916 43.2827 96.1846 43.483C95.7777 43.6811 95.3036 43.7802 94.7624 43.7802C94.2191 43.7802 93.7439 43.6811 93.337 43.483C92.93 43.2827 92.6136 43.0036 92.3877 42.6456C92.1619 42.2876 92.049 41.87 92.049 41.3928V37.142H93.4328V41.2745C93.4328 41.5238 93.4872 41.7454 93.5958 41.9393C93.7066 42.1332 93.8622 42.2855 94.0625 42.3963C94.2627 42.5071 94.4961 42.5625 94.7624 42.5625C95.0309 42.5625 95.2642 42.5071 95.4623 42.3963C95.6626 42.2855 95.8171 42.1332 95.9257 41.9393C96.0365 41.7454 96.0919 41.5238 96.0919 41.2745V37.142ZM99.4441 43.6875V42.8661L102.71 38.283H99.4377V37.142H104.449V37.9634L101.18 42.5465H104.455V43.6875H99.4441ZM112.125 40.4148C112.125 41.1286 111.989 41.7358 111.719 42.2365C111.45 42.7372 111.084 43.1197 110.619 43.3839C110.157 43.646 109.637 43.777 109.06 43.777C108.478 43.777 107.956 43.6449 107.494 43.3807C107.031 43.1165 106.666 42.734 106.397 42.2333C106.129 41.7326 105.995 41.1264 105.995 40.4148C105.995 39.701 106.129 39.0938 106.397 38.593C106.666 38.0923 107.031 37.7109 107.494 37.4489C107.956 37.1847 108.478 37.0526 109.06 37.0526C109.637 37.0526 110.157 37.1847 110.619 37.4489C111.084 37.7109 111.45 38.0923 111.719 38.593C111.989 39.0938 112.125 39.701 112.125 40.4148ZM110.722 40.4148C110.722 39.9524 110.652 39.5625 110.514 39.245C110.377 38.9276 110.185 38.6868 109.935 38.5227C109.686 38.3587 109.394 38.2766 109.06 38.2766C108.725 38.2766 108.433 38.3587 108.184 38.5227C107.935 38.6868 107.741 38.9276 107.602 39.245C107.466 39.5625 107.398 39.9524 107.398 40.4148C107.398 40.8771 107.466 41.267 107.602 41.5845C107.741 41.902 107.935 42.1428 108.184 42.3068C108.433 42.4709 108.725 42.5529 109.06 42.5529C109.394 42.5529 109.686 42.4709 109.935 42.3068C110.185 42.1428 110.377 41.902 110.514 41.5845C110.652 41.267 110.722 40.8771 110.722 40.4148ZM114.863 37.142L116.445 42.1151H116.506L118.091 37.142H119.625L117.369 43.6875H115.585L113.326 37.142H114.863Z" fill="white"/>
<path d="M14.9609 23.5234C14.888 22.8411 14.5807 22.3099 14.0391 21.9297C13.5026 21.5495 12.8047 21.3594 11.9453 21.3594C11.3411 21.3594 10.8229 21.4505 10.3906 21.6328C9.95833 21.8151 9.6276 22.0625 9.39844 22.375C9.16927 22.6875 9.05208 23.0443 9.04688 23.4453C9.04688 23.7786 9.1224 24.0677 9.27344 24.3125C9.42969 24.5573 9.64063 24.7656 9.90625 24.9375C10.1719 25.1042 10.4661 25.2448 10.7891 25.3594C11.112 25.474 11.4375 25.5703 11.7656 25.6484L13.2656 26.0234C13.8698 26.1641 14.4505 26.3542 15.0078 26.5937C15.5703 26.8333 16.0729 27.1354 16.5156 27.5C16.9635 27.8646 17.3177 28.3047 17.5781 28.8203C17.8385 29.3359 17.9688 29.9401 17.9688 30.6328C17.9688 31.5703 17.7292 32.3958 17.25 33.1094C16.7708 33.8177 16.0781 34.3724 15.1719 34.7734C14.2708 35.1693 13.1797 35.3672 11.8984 35.3672C10.6536 35.3672 9.57292 35.1745 8.65625 34.7891C7.74479 34.4036 7.03125 33.8411 6.51563 33.1016C6.00521 32.362 5.72917 31.4609 5.6875 30.3984H8.53906C8.58073 30.9557 8.7526 31.4193 9.05469 31.7891C9.35677 32.1589 9.75 32.4349 10.2344 32.6172C10.724 32.7995 11.2708 32.8906 11.875 32.8906C12.5052 32.8906 13.0573 32.7969 13.5313 32.6094C14.0104 32.4167 14.3854 32.151 14.6562 31.8125C14.9271 31.4687 15.0651 31.0677 15.0703 30.6094C15.0651 30.1927 14.9427 29.849 14.7031 29.5781C14.4635 29.3021 14.1276 29.0729 13.6953 28.8906C13.2682 28.7031 12.7682 28.5365 12.1953 28.3906L10.375 27.9219C9.05729 27.5833 8.01563 27.0703 7.25 26.3828C6.48958 25.6901 6.10938 24.7708 6.10938 23.625C6.10938 22.6823 6.36458 21.8568 6.875 21.1484C7.39063 20.4401 8.09115 19.8906 8.97656 19.5C9.86198 19.1042 10.8646 18.9062 11.9844 18.9062C13.1198 18.9062 14.1146 19.1042 14.9688 19.5C15.8281 19.8906 16.5026 20.4349 16.9922 21.1328C17.4818 21.8255 17.7344 22.6224 17.75 23.5234H14.9609ZM19.8496 21.5547V19.125H32.6152V21.5547H27.6699V35.125H24.7949V21.5547H19.8496ZM35.1973 35.125H32.1035L37.7363 19.125H41.3145L46.9551 35.125H43.8613L39.5879 22.4062H39.4629L35.1973 35.125ZM35.2988 28.8516H43.7363V31.1797H35.2988V28.8516ZM62.2109 19.125V35.125H59.6328L52.0938 24.2266H51.9609V35.125H49.0625V19.125H51.6563L59.1875 30.0312H59.3281V19.125H62.2109ZM70.791 35.125H65.3691V19.125H70.9004C72.4889 19.125 73.8535 19.4453 74.9941 20.0859C76.14 20.7214 77.0202 21.6354 77.6348 22.8281C78.2493 24.0208 78.5566 25.4479 78.5566 27.1094C78.5566 28.776 78.2467 30.2083 77.627 31.4062C77.0124 32.6042 76.1243 33.5234 74.9629 34.1641C73.8066 34.8047 72.416 35.125 70.791 35.125ZM68.2676 32.6172H70.6504C71.765 32.6172 72.6947 32.4141 73.4395 32.0078C74.1842 31.5964 74.7441 30.9844 75.1191 30.1719C75.4941 29.3542 75.6816 28.3333 75.6816 27.1094C75.6816 25.8854 75.4941 24.8698 75.1191 24.0625C74.7441 23.25 74.1895 22.6432 73.4551 22.2422C72.7259 21.8359 71.8197 21.6328 70.7363 21.6328H68.2676V32.6172ZM82.5059 35.125H79.4121L85.0449 19.125H88.623L94.2637 35.125H91.1699L86.8965 22.4062H86.7715L82.5059 35.125ZM82.6074 28.8516H91.0449V31.1797H82.6074V28.8516ZM96.3711 35.125V19.125H102.371C103.6 19.125 104.632 19.3385 105.465 19.7656C106.303 20.1927 106.936 20.7917 107.363 21.5625C107.796 22.3281 108.012 23.2214 108.012 24.2422C108.012 25.2682 107.793 26.1589 107.355 26.9141C106.923 27.6641 106.285 28.2448 105.441 28.6562C104.598 29.0625 103.561 29.2656 102.332 29.2656H98.0586V26.8594H101.941C102.66 26.8594 103.249 26.7604 103.707 26.5625C104.165 26.3594 104.504 26.0651 104.723 25.6797C104.947 25.2891 105.059 24.8099 105.059 24.2422C105.059 23.6745 104.947 23.1901 104.723 22.7891C104.499 22.3828 104.158 22.0755 103.699 21.8672C103.241 21.6536 102.65 21.5469 101.926 21.5469H99.2695V35.125H96.3711ZM104.637 27.875L108.598 35.125H105.363L101.473 27.875H104.637ZM109.977 21.5547V19.125H122.742V21.5547H117.797V35.125H114.922V21.5547H109.977Z" fill="white"/>
<line x1="6.5625" y1="41.6875" x2="76.875" y2="41.6875" stroke="white"/>
<defs>
<linearGradient id="paint0_linear_39_144" x1="143.138" y1="11.985" x2="0.000102894" y2="11.985" gradientUnits="userSpaceOnUse">
<stop stop-color="#235FAD"/>
<stop offset="0.3116" stop-color="#5078E6"/>
<stop offset="0.5531" stop-color="#235FAD"/>
<stop offset="0.82" stop-color="#235FAD"/>
<stop offset="1" stop-color="#5078E6"/>
</linearGradient>
</defs>
</svg>
