<svg width="133" height="44" viewBox="0 0 133 44" fill="none" xmlns="http://www.w3.org/2000/svg">
<path d="M89.8964 11.7431C89.8964 11.7431 117.118 9.91393 132.128 22.126C132.128 22.126 123.735 12.0659 102.109 9.91394C92.7476 6.20186 83.2256 1.68296 72.1969 0.391605C61.1683 -0.899466 42.2316 1.1449 30.9339 4.42652C30.9339 4.42652 50.7316 10.2368 61.3297 9.75252C53.5631 9.31893 43.7379 4.85698 43.7379 4.85698C56.5418 1.46774 65.2032 1.1449 74.4565 2.86642C83.7098 4.58794 98.3429 10.0754 98.3429 10.0754C96.4597 10.721 89.8964 11.7431 89.8964 11.7431ZM4.68035 8.83809C4.68035 8.83809 1.02208 8.24621 3.74106e-05 6.68611C4.62654 7.92338 20.9811 6.95514 26.0515 5.55646C33.0586 9.10712 51.0612 11.8715 65.4182 13.1958C30.9336 11.0632 7.5728 0.929955 0.612407 21.1581C-0.658166 13.9488 4.68035 8.83809 4.68035 8.83809Z" fill="url(#paint0_linear_80_2)"/>
<path d="M83.4936 43L81.4354 40.2834H81.0774V43H79.4954V36.4545H81.0774V38.9954H81.3299L83.3562 36.4545H85.3345L82.8129 39.5451L85.4656 43H83.4936ZM87.771 43.0895V41.8366H88.1066C88.2877 41.8366 88.4326 41.8185 88.5412 41.7823C88.652 41.744 88.7383 41.6832 88.8001 41.6001C88.864 41.517 88.9173 41.4062 88.9599 41.2678L89.0334 41.0664L86.6172 36.4545H88.2408L89.695 39.3949L90.8648 36.4545H92.4628L90.2128 41.6417C90.0956 41.8974 89.9571 42.136 89.7973 42.3576C89.6375 42.5771 89.4361 42.7539 89.1932 42.8881C88.9525 43.0224 88.6488 43.0895 88.2824 43.0895H87.771ZM96.5077 43.0895C96.0091 43.0895 95.567 43.0043 95.1813 42.8338C94.7978 42.6612 94.4952 42.4237 94.2736 42.1211C94.052 41.8185 93.9391 41.4702 93.9349 41.076H95.5265C95.5329 41.2187 95.5787 41.3455 95.6639 41.4563C95.7491 41.565 95.8653 41.6502 96.0123 41.712C96.1593 41.7738 96.3265 41.8047 96.514 41.8047C96.7015 41.8047 96.8667 41.7717 97.0094 41.7056C97.1543 41.6374 97.2672 41.5447 97.3482 41.4276C97.4292 41.3082 97.4686 41.1719 97.4665 41.0185C97.4686 40.8651 97.4249 40.7287 97.3354 40.6094C97.2459 40.4901 97.1192 40.3974 96.9551 40.3313C96.7932 40.2653 96.6014 40.2322 96.3798 40.2322H95.7438V39.1072H96.3798C96.5737 39.1072 96.7442 39.0753 96.8912 39.0114C97.0403 38.9474 97.1564 38.858 97.2395 38.7429C97.3226 38.6257 97.3631 38.4915 97.361 38.3402C97.3631 38.1932 97.328 38.0643 97.2555 37.9535C97.1852 37.8406 97.0861 37.7532 96.9583 37.6914C96.8326 37.6296 96.6866 37.5987 96.5204 37.5987C96.3457 37.5987 96.187 37.6296 96.0442 37.6914C95.9036 37.7532 95.7917 37.8406 95.7086 37.9535C95.6256 38.0664 95.5819 38.1974 95.5776 38.3466H94.0659C94.0702 37.9567 94.1788 37.6136 94.3919 37.3175C94.605 37.0192 94.8947 36.7859 95.2612 36.6175C95.6298 36.4492 96.0496 36.3651 96.5204 36.3651C96.9892 36.3651 97.4015 36.4471 97.7573 36.6112C98.1131 36.7752 98.3901 36.9989 98.5883 37.2823C98.7864 37.5636 98.8855 37.8821 98.8855 38.2379C98.8876 38.6065 98.7672 38.9102 98.5243 39.1488C98.2836 39.3874 97.9736 39.5344 97.5943 39.5898V39.641C98.1014 39.7006 98.4839 39.8647 98.7417 40.1332C99.0016 40.4016 99.1305 40.7372 99.1284 41.1399C99.1284 41.5192 99.0165 41.8558 98.7928 42.1499C98.5712 42.4418 98.2623 42.6719 97.866 42.8402C97.4718 43.0064 97.019 43.0895 96.5077 43.0895ZM107.112 39.7273C107.112 40.4474 106.973 41.0579 106.696 41.5586C106.419 42.0593 106.044 42.4396 105.571 42.6996C105.1 42.9595 104.572 43.0895 103.986 43.0895C103.398 43.0895 102.868 42.9585 102.397 42.6964C101.927 42.4343 101.553 42.054 101.276 41.5554C101.001 41.0547 100.863 40.4453 100.863 39.7273C100.863 39.0071 101.001 38.3967 101.276 37.896C101.553 37.3952 101.927 37.0149 102.397 36.755C102.868 36.495 103.398 36.3651 103.986 36.3651C104.572 36.3651 105.1 36.495 105.571 36.755C106.044 37.0149 106.419 37.3952 106.696 37.896C106.973 38.3967 107.112 39.0071 107.112 39.7273ZM105.494 39.7273C105.494 39.3011 105.434 38.9411 105.312 38.647C105.193 38.353 105.02 38.1303 104.794 37.979C104.571 37.8278 104.301 37.7521 103.986 37.7521C103.673 37.7521 103.403 37.8278 103.177 37.979C102.951 38.1303 102.778 38.353 102.656 38.647C102.537 38.9411 102.477 39.3011 102.477 39.7273C102.477 40.1534 102.537 40.5135 102.656 40.8075C102.778 41.1016 102.951 41.3242 103.177 41.4755C103.403 41.6268 103.673 41.7024 103.986 41.7024C104.301 41.7024 104.571 41.6268 104.794 41.4755C105.02 41.3242 105.193 41.1016 105.312 40.8075C105.434 40.5135 105.494 40.1534 105.494 39.7273ZM108.935 43V36.4545H111.665C112.155 36.4545 112.565 36.5238 112.895 36.6623C113.227 36.8008 113.477 36.9947 113.643 37.244C113.811 37.4933 113.895 37.782 113.895 38.1101C113.895 38.3594 113.843 38.582 113.739 38.7781C113.634 38.9719 113.491 39.1328 113.307 39.2607C113.124 39.3885 112.912 39.478 112.671 39.5291V39.593C112.936 39.6058 113.18 39.6772 113.403 39.8072C113.629 39.9371 113.81 40.1183 113.947 40.3505C114.083 40.5806 114.151 40.8533 114.151 41.1687C114.151 41.5202 114.062 41.8345 113.883 42.1115C113.704 42.3864 113.445 42.6037 113.106 42.7635C112.767 42.9212 112.356 43 111.872 43H108.935ZM110.517 41.7248H111.495C111.838 41.7248 112.091 41.6598 112.253 41.5298C112.417 41.3999 112.499 41.2188 112.499 40.9865C112.499 40.8182 112.459 40.6733 112.381 40.5518C112.302 40.4283 112.19 40.3335 112.045 40.2674C111.9 40.1992 111.726 40.1651 111.524 40.1651H110.517V41.7248ZM110.517 39.1456H111.393C111.566 39.1456 111.719 39.1168 111.853 39.0593C111.987 39.0018 112.092 38.9187 112.166 38.81C112.243 38.7013 112.281 38.5703 112.281 38.4169C112.281 38.1974 112.204 38.0249 112.048 37.8991C111.893 37.7734 111.683 37.7106 111.419 37.7106H110.517V39.1456Z" fill="black"/>
<path d="M18.4249 21.6623H15.3141C15.2573 21.2598 15.1413 20.9023 14.9661 20.5898C14.7909 20.2726 14.566 20.0027 14.2914 19.7802C14.0168 19.5576 13.6995 19.3872 13.3397 19.2688C12.9846 19.1504 12.5987 19.0912 12.182 19.0912C11.4292 19.0912 10.7734 19.2783 10.2147 19.6523C9.65598 20.0216 9.22274 20.5614 8.91497 21.2716C8.60721 21.9771 8.45332 22.8341 8.45332 23.8427C8.45332 24.8796 8.60721 25.7508 8.91497 26.4563C9.22747 27.1618 9.66308 27.6945 10.2218 28.0543C10.7805 28.4142 11.4268 28.5941 12.1607 28.5941C12.5726 28.5941 12.9538 28.5396 13.3042 28.4307C13.6593 28.3218 13.9742 28.1632 14.2488 27.9549C14.5234 27.7418 14.7507 27.4838 14.9306 27.1807C15.1153 26.8777 15.2431 26.5321 15.3141 26.1438L18.4249 26.158C18.3444 26.8256 18.1432 27.4696 17.8212 28.0898C17.504 28.7053 17.0755 29.257 16.5357 29.7446C16.0007 30.2276 15.3615 30.6111 14.6181 30.8952C13.8795 31.1746 13.0438 31.3143 12.111 31.3143C10.8136 31.3143 9.65361 31.0207 8.63088 30.4336C7.61289 29.8464 6.80796 28.9965 6.21611 27.8839C5.62899 26.7712 5.33543 25.4241 5.33543 23.8427C5.33543 22.2565 5.63372 20.9071 6.23031 19.7944C6.8269 18.6817 7.63656 17.8341 8.65929 17.2518C9.68202 16.6646 10.8326 16.3711 12.111 16.3711C12.9538 16.3711 13.735 16.4894 14.4547 16.7262C15.1792 16.9629 15.8207 17.3086 16.3795 17.7631C16.9382 18.2129 17.3927 18.7645 17.7431 19.4179C18.0982 20.0714 18.3255 20.8195 18.4249 21.6623ZM20.0762 19.1054V16.5699H32.0222V19.1054H27.5691V31.1154H24.5293V19.1054H20.0762ZM34.7193 31.1154H31.4239L36.4452 16.5699H40.4082L45.4224 31.1154H42.127L38.4835 19.8938H38.3699L34.7193 31.1154ZM34.5133 25.3981H42.2974V27.7986H34.5133V25.3981ZM47.1731 31.1154V16.5699H50.2484V22.5714H56.4913V16.5699H59.5595V31.1154H56.4913V25.1069H50.2484V31.1154H47.1731ZM61.3067 34.6239V28.6651H62.2939C62.6301 28.4236 62.9378 28.0827 63.2172 27.6424C63.4965 27.1973 63.7356 26.5841 63.9345 25.8029C64.1334 25.0169 64.2754 23.9894 64.3606 22.7205L64.7726 16.5699H74.3962V28.6651H75.9871V34.6097H73.0325V31.1154H64.2612V34.6239H61.3067ZM65.845 28.6651H71.4416V19.1054H67.5425L67.3152 22.7205C67.2536 23.6817 67.1518 24.5339 67.0098 25.2773C66.8725 26.0207 66.7044 26.6717 66.5055 27.2304C66.3114 27.7844 66.0912 28.2626 65.845 28.6651ZM80.3638 31.1154H77.0684L82.0897 16.5699H86.0528L91.067 31.1154H87.7715L84.128 19.8938H84.0144L80.3638 31.1154ZM80.1579 25.3981H87.942V27.7986H80.1579V25.3981ZM92.8177 31.1154V16.5699H98.5563C99.6595 16.5699 100.599 16.7806 101.376 17.202C102.152 17.6187 102.744 18.1987 103.151 18.9421C103.563 19.6807 103.769 20.533 103.769 21.4989C103.769 22.4648 103.561 23.3171 103.144 24.0557C102.728 24.7944 102.124 25.3696 101.333 25.7816C100.547 26.1935 99.5956 26.3995 98.4782 26.3995H94.8205V23.935H97.981C98.5729 23.935 99.0606 23.8332 99.4441 23.6296C99.8323 23.4213 100.121 23.1348 100.311 22.7702C100.505 22.4009 100.602 21.9771 100.602 21.4989C100.602 21.016 100.505 20.5946 100.311 20.2347C100.121 19.8701 99.8323 19.5884 99.4441 19.3895C99.0558 19.1859 98.5634 19.0841 97.9668 19.0841H95.893V31.1154H92.8177ZM105.213 19.1054V16.5699H117.159V19.1054H112.706V31.1154H109.666V19.1054H105.213Z" fill="black"/>
<line x1="3.46155" y1="40.1731" x2="72.6923" y2="40.1731" stroke="black"/>
<defs>
<linearGradient id="paint0_linear_80_2" x1="132.128" y1="11.0631" x2="6.50519e-05" y2="11.0631" gradientUnits="userSpaceOnUse">
<stop stop-color="#235FAD"/>
<stop offset="0.3116" stop-color="#5078E6"/>
<stop offset="0.5531" stop-color="#235FAD"/>
<stop offset="0.82" stop-color="#235FAD"/>
<stop offset="1" stop-color="#5078E6"/>
</linearGradient>
</defs>
</svg>
