<svg xmlns="http://www.w3.org/2000/svg" width="192" height="192" viewBox="0 0 192 192" fill="none">
  <rect width="192" height="192" fill="#0284c7"/>
  <path d="M152 136h16c4.8 0 8-3.2 8-8v-24c0-7.2-5.6-13.6-12-15.2-14.4-4.8-36-8-36-8s-10.4-11.2-17.6-18.4c-4-3.2-8.8-5.6-14.4-5.6H40c-4.8 0-8.8 3.2-11.2 7.2l-11.2 23.2c-1.6 3.2-2.4 6.4-2.4 9.6v32c0 4.8 3.2 8 8 8h16" stroke="white" stroke-width="16" stroke-linecap="round" stroke-linejoin="round"/>
  <circle cx="56" cy="136" r="16" stroke="white" stroke-width="16"/>
  <path d="M72 136h48" stroke="white" stroke-width="16" stroke-linecap="round"/>
  <circle cx="136" cy="136" r="16" stroke="white" stroke-width="16"/>
</svg>