<svg xmlns="http://www.w3.org/2000/svg" width="180" height="180" viewBox="0 0 180 180" fill="none">
  <rect width="180" height="180" rx="45" fill="#0284c7"/>
  <path d="M142.5 127.5h15c4.5 0 7.5-3 7.5-7.5v-22.5c0-6.75-5.25-12.75-11.25-14.25-13.5-4.5-33.75-7.5-33.75-7.5s-9.75-10.5-16.5-17.25c-3.75-3-8.25-5.25-13.5-5.25H37.5c-4.5 0-8.25 3-10.5 6.75l-10.5 21.75c-1.5 3-2.25 6-2.25 9v30c0 4.5 3 7.5 7.5 7.5h15" stroke="white" stroke-width="15" stroke-linecap="round" stroke-linejoin="round"/>
  <circle cx="52.5" cy="127.5" r="15" stroke="white" stroke-width="15"/>
  <path d="M67.5 127.5h45" stroke="white" stroke-width="15" stroke-linecap="round"/>
  <circle cx="127.5" cy="127.5" r="15" stroke="white" stroke-width="15"/>
</svg>